<svg x="0" y="0" width="259.79688" height="300" version="1.1" xmlns="http://www.w3.org/2000/svg" xmlns:xlink="http://www.w3.org/1999/xlink"><g fill="none" stroke="#808080" stroke-width="1" stroke-linecap="butt" stroke-linejoin="miter" stroke-miterlimit="10" stroke-dasharray="" stroke-dashoffset="0" font-family="sans-serif" font-weight="normal" font-size="12" text-anchor="start" mix-blend-mode="normal"><path d="M0,0l0,300"/><path d="M17.32051,0l0,300"/><path d="M34.64102,0l0,300"/><path d="M34.64102,0l225.1666,130"/><path d="M34.64102,300l225.1666,-130"/><path d="M51.96152,0l0,300"/><path d="M69.28203,0l0,300"/><path d="M69.28203,0l190.52559,110"/><path d="M69.28203,300l190.52559,-110"/><path d="M86.60254,0l0,300"/><path d="M103.92305,0l0,300"/><path d="M103.92305,0l155.88457,90"/><path d="M103.92305,300l155.88457,-90"/><path d="M121.24356,0l0,300"/><path d="M138.56406,0l0,300"/><path d="M138.56406,0l121.24356,70"/><path d="M138.56406,300l121.24356,-70"/><path d="M155.88457,0l0,300"/><path d="M173.20508,0l0,300"/><path d="M173.20508,0l86.60254,50"/><path d="M173.20508,300l86.60254,-50"/><path d="M190.52559,0l0,300"/><path d="M207.8461,0l0,300"/><path d="M207.8461,0l51.96152,30"/><path d="M207.8461,300l51.96152,-30"/><path d="M225.1666,0l0,300"/><path d="M242.48711,0l0,300"/><path d="M242.48711,0l17.32051,10"/><path d="M242.48711,300l17.32051,-10"/><path d="M259.80762,0l0,300"/><path d="M0,0l259.80762,150"/><path d="M0,0l259.80762,-150"/><path d="M0,20l259.80762,150"/><path d="M0,20l259.80762,-150"/><path d="M0,40l259.80762,150"/><path d="M0,40l259.80762,-150"/><path d="M0,60l259.80762,150"/><path d="M0,60l259.80762,-150"/><path d="M0,80l259.80762,150"/><path d="M0,80l259.80762,-150"/><path d="M0,100l259.80762,150"/><path d="M0,100l259.80762,-150"/><path d="M0,120l259.80762,150"/><path d="M0,120l259.80762,-150"/><path d="M0,140l259.80762,150"/><path d="M0,140l259.80762,-150"/><path d="M0,160l259.80762,150"/><path d="M0,160l259.80762,-150"/><path d="M0,180l259.80762,150"/><path d="M0,180l259.80762,-150"/><path d="M0,200l259.80762,150"/><path d="M0,200l259.80762,-150"/><path d="M0,220l259.80762,150"/><path d="M0,220l259.80762,-150"/><path d="M0,240l259.80762,150"/><path d="M0,240l259.80762,-150"/><path d="M0,260l259.80762,150"/><path d="M0,260l259.80762,-150"/><path d="M0,280l259.80762,150"/><path d="M0,280l259.80762,-150"/><path d="M0,300l259.80762,150"/><path d="M0,300l259.80762,-150"/></g><g fill="none" stroke="none" stroke-width="1" stroke-linecap="butt" stroke-linejoin="miter" stroke-miterlimit="10" stroke-dasharray="" stroke-dashoffset="0" font-family="sans-serif" font-weight="normal" font-size="12" text-anchor="start" mix-blend-mode="normal"><path d="M0,0l17.32051,-10l0,20z" fill-opacity="0" fill="#000000"/><path d="M0,0l17.32051,10l-17.32051,10z" fill-opacity="0" fill="#000000"/><path d="M0,20l17.32051,-10l0,20z" fill-opacity="0" fill="#000000"/><path d="M0,20l17.32051,10l-17.32051,10z" fill-opacity="0" fill="#000000"/><path d="M0,40l17.32051,-10l0,20z" fill-opacity="0" fill="#000000"/><path d="M0,40l17.32051,10l-17.32051,10z" fill-opacity="0" fill="#000000"/><path d="M0,60l17.32051,-10l0,20z" fill-opacity="0" fill="#000000"/><path d="M0,60l17.32051,10l-17.32051,10z" fill-opacity="0" fill="#000000"/><path d="M0,80l17.32051,-10l0,20z" fill-opacity="0" fill="#000000"/><path d="M0,80l17.32051,10l-17.32051,10z" fill-opacity="0" fill="#000000"/><path d="M0,100l17.32051,-10l0,20z" fill-opacity="0" fill="#000000"/><path d="M0,100l17.32051,10l-17.32051,10z" fill-opacity="0" fill="#000000"/><path d="M0,120l17.32051,-10l0,20z" fill-opacity="0" fill="#000000"/><path d="M0,120l17.32051,10l-17.32051,10z" fill-opacity="0" fill="#000000"/><path d="M0,140l17.32051,-10l0,20z" fill-opacity="0" fill="#000000"/><path d="M0,140l17.32051,10l-17.32051,10z" fill-opacity="0" fill="#000000"/><path d="M0,160l17.32051,-10l0,20z" fill-opacity="0" fill="#000000"/><path d="M0,160l17.32051,10l-17.32051,10z" fill-opacity="0" fill="#000000"/><path d="M0,180l17.32051,-10l0,20z" fill-opacity="0" fill="#000000"/><path d="M0,180l17.32051,10l-17.32051,10z" fill-opacity="0" fill="#000000"/><path d="M0,200l17.32051,-10l0,20z" fill-opacity="0" fill="#000000"/><path d="M0,200l17.32051,10l-17.32051,10z" fill-opacity="0" fill="#000000"/><path d="M0,220l17.32051,-10l0,20z" fill-opacity="0" fill="#000000"/><path d="M0,220l17.32051,10l-17.32051,10z" fill-opacity="0" fill="#000000"/><path d="M0,240l17.32051,-10l0,20z" fill-opacity="0" fill="#000000"/><path d="M0,240l17.32051,10l-17.32051,10z" fill-opacity="0" fill="#000000"/><path d="M0,260l17.32051,-10l0,20z" fill-opacity="0" fill="#000000"/><path d="M0,260l17.32051,10l-17.32051,10z" fill-opacity="0" fill="#000000"/><path d="M0,280l17.32051,-10l0,20z" fill-opacity="0" fill="#000000"/><path d="M0,280l17.32051,10l-17.32051,10z" fill-opacity="0" fill="#000000"/><path d="M0,300l17.32051,-10l0,20z" fill-opacity="0" fill="#000000"/><path d="M0,300l17.32051,10l-17.32051,10z"/><path d="M17.32051,-10l17.32051,10l-17.32051,10z" fill-opacity="0" fill="#000000"/><path d="M17.32051,10l17.32051,-10l0,20z" fill-opacity="0" fill="#000000"/><path d="M17.32051,10l17.32051,10l-17.32051,10z" fill-opacity="0" fill="#000000"/><path d="M17.32051,30l17.32051,-10l0,20z" fill-opacity="0" fill="#000000"/><path d="M17.32051,30l17.32051,10l-17.32051,10z" fill-opacity="0" fill="#000000"/><path d="M17.32051,50l17.32051,-10l0,20z" fill-opacity="0" fill="#000000"/><path d="M17.32051,50l17.32051,10l-17.32051,10z" fill-opacity="0" fill="#000000"/><path d="M17.32051,70l17.32051,-10l0,20z" fill-opacity="0" fill="#000000"/><path d="M17.32051,70l17.32051,10l-17.32051,10z" fill-opacity="0" fill="#000000"/><path d="M17.32051,90l17.32051,-10l0,20z" fill-opacity="0" fill="#000000"/><path d="M17.32051,90l17.32051,10l-17.32051,10z" fill-opacity="0" fill="#000000"/><path d="M17.32051,110l17.32051,-10l0,20z" fill-opacity="0" fill="#000000"/><path d="M17.32051,110l17.32051,10l-17.32051,10z" fill-opacity="0" fill="#000000"/><path d="M17.32051,130l17.32051,-10l0,20z" fill-opacity="0" fill="#000000"/><path d="M17.32051,130l17.32051,10l-17.32051,10z" fill-opacity="0" fill="#000000"/><path d="M17.32051,150l17.32051,-10l0,20z" fill="#668f1a"/><path d="M17.32051,150l17.32051,10l-17.32051,10z" fill="#8bc71c"/><path d="M17.32051,170l17.32051,-10l0,20z" fill="#8bc71c"/><path d="M17.32051,170l17.32051,10l-17.32051,10z" fill-opacity="0" fill="#000000"/><path d="M17.32051,190l17.32051,-10l0,20z" fill-opacity="0" fill="#000000"/><path d="M17.32051,190l17.32051,10l-17.32051,10z" fill-opacity="0" fill="#000000"/><path d="M17.32051,210l17.32051,-10l0,20z" fill-opacity="0" fill="#000000"/><path d="M17.32051,210l17.32051,10l-17.32051,10z" fill-opacity="0" fill="#000000"/><path d="M17.32051,230l17.32051,-10l0,20z" fill-opacity="0" fill="#000000"/><path d="M17.32051,230l17.32051,10l-17.32051,10z" fill-opacity="0" fill="#000000"/><path d="M17.32051,250l17.32051,-10l0,20z" fill-opacity="0" fill="#000000"/><path d="M17.32051,250l17.32051,10l-17.32051,10z" fill-opacity="0" fill="#000000"/><path d="M17.32051,270l17.32051,-10l0,20z" fill-opacity="0" fill="#000000"/><path d="M17.32051,270l17.32051,10l-17.32051,10z" fill-opacity="0" fill="#000000"/><path d="M17.32051,290l17.32051,-10l0,20z" fill-opacity="0" fill="#000000"/><path d="M17.32051,290l17.32051,10l-17.32051,10z" fill-opacity="0" fill="#000000"/><path d="M17.32051,310l17.32051,-10l0,20z"/><path d="M34.64102,0l17.32051,-10l0,20z" fill-opacity="0" fill="#000000"/><path d="M34.64102,0l17.32051,10l-17.32051,10z" fill-opacity="0" fill="#000000"/><path d="M34.64102,20l17.32051,-10l0,20z" fill-opacity="0" fill="#000000"/><path d="M34.64102,20l17.32051,10l-17.32051,10z" fill-opacity="0" fill="#000000"/><path d="M34.64102,40l17.32051,-10l0,20z" fill-opacity="0" fill="#000000"/><path d="M34.64102,40l17.32051,10l-17.32051,10z" fill-opacity="0" fill="#000000"/><path d="M34.64102,60l17.32051,-10l0,20z" fill-opacity="0" fill="#000000"/><path d="M34.64102,60l17.32051,10l-17.32051,10z" fill-opacity="0" fill="#000000"/><path d="M34.64102,80l17.32051,-10l0,20z" fill-opacity="0" fill="#000000"/><path d="M34.64102,80l17.32051,10l-17.32051,10z" fill-opacity="0" fill="#000000"/><path d="M34.64102,100l17.32051,-10l0,20z" fill-opacity="0" fill="#000000"/><path d="M34.64102,100l17.32051,10l-17.32051,10z" fill-opacity="0" fill="#000000"/><path d="M34.64102,120l17.32051,-10l0,20z" fill-opacity="0" fill="#000000"/><path d="M34.64102,120l17.32051,10l-17.32051,10z" fill-opacity="0" fill="#000000"/><path d="M34.64102,140l17.32051,-10l0,20z" fill="#668f1a"/><path d="M34.64102,140l17.32051,10l-17.32051,10z" fill="#668f1a"/><path d="M34.64102,160l17.32051,-10l0,20z" fill="#668f1a"/><path d="M34.64102,160l17.32051,10l-17.32051,10z" fill="#8bc71c"/><path d="M34.64102,180l17.32051,-10l0,20z" fill="#8bc71c"/><path d="M34.64102,180l17.32051,10l-17.32051,10z" fill-opacity="0" fill="#000000"/><path d="M34.64102,200l17.32051,-10l0,20z" fill-opacity="0" fill="#000000"/><path d="M34.64102,200l17.32051,10l-17.32051,10z" fill-opacity="0" fill="#000000"/><path d="M34.64102,220l17.32051,-10l0,20z" fill-opacity="0" fill="#000000"/><path d="M34.64102,220l17.32051,10l-17.32051,10z" fill-opacity="0" fill="#000000"/><path d="M34.64102,240l17.32051,-10l0,20z" fill-opacity="0" fill="#000000"/><path d="M34.64102,240l17.32051,10l-17.32051,10z" fill-opacity="0" fill="#000000"/><path d="M34.64102,260l17.32051,-10l0,20z" fill-opacity="0" fill="#000000"/><path d="M34.64102,260l17.32051,10l-17.32051,10z" fill-opacity="0" fill="#000000"/><path d="M34.64102,280l17.32051,-10l0,20z" fill-opacity="0" fill="#000000"/><path d="M34.64102,280l17.32051,10l-17.32051,10z" fill-opacity="0" fill="#000000"/><path d="M34.64102,300l17.32051,-10l0,20z" fill-opacity="0" fill="#000000"/><path d="M34.64102,300l17.32051,10l-17.32051,10z"/><path d="M51.96152,-10l17.32051,10l-17.32051,10z" fill-opacity="0" fill="#000000"/><path d="M51.96152,10l17.32051,-10l0,20z" fill-opacity="0" fill="#000000"/><path d="M51.96152,10l17.32051,10l-17.32051,10z" fill-opacity="0" fill="#000000"/><path d="M51.96152,30l17.32051,-10l0,20z" fill-opacity="0" fill="#000000"/><path d="M51.96152,30l17.32051,10l-17.32051,10z" fill-opacity="0" fill="#000000"/><path d="M51.96152,50l17.32051,-10l0,20z" fill-opacity="0" fill="#000000"/><path d="M51.96152,50l17.32051,10l-17.32051,10z" fill-opacity="0" fill="#000000"/><path d="M51.96152,70l17.32051,-10l0,20z" fill-opacity="0" fill="#000000"/><path d="M51.96152,70l17.32051,10l-17.32051,10z" fill-opacity="0" fill="#000000"/><path d="M51.96152,90l17.32051,-10l0,20z" fill-opacity="0" fill="#000000"/><path d="M51.96152,90l17.32051,10l-17.32051,10z" fill-opacity="0" fill="#000000"/><path d="M51.96152,110l17.32051,-10l0,20z" fill-opacity="0" fill="#000000"/><path d="M51.96152,110l17.32051,10l-17.32051,10z" fill-opacity="0" fill="#000000"/><path d="M51.96152,130l17.32051,-10l0,20z" fill="#668f1a"/><path d="M51.96152,130l17.32051,10l-17.32051,10z" fill="#668f1a"/><path d="M51.96152,150l17.32051,-10l0,20z" fill="#486610"/><path d="M51.96152,150l17.32051,10l-17.32051,10z" fill="#668f1a"/><path d="M51.96152,170l17.32051,-10l0,20z" fill="#668f1a"/><path d="M51.96152,170l17.32051,10l-17.32051,10z" fill="#8bc71c"/><path d="M51.96152,190l17.32051,-10l0,20z" fill="#8bc71c"/><path d="M51.96152,190l17.32051,10l-17.32051,10z" fill-opacity="0" fill="#000000"/><path d="M51.96152,210l17.32051,-10l0,20z" fill-opacity="0" fill="#000000"/><path d="M51.96152,210l17.32051,10l-17.32051,10z" fill-opacity="0" fill="#000000"/><path d="M51.96152,230l17.32051,-10l0,20z" fill-opacity="0" fill="#000000"/><path d="M51.96152,230l17.32051,10l-17.32051,10z" fill-opacity="0" fill="#000000"/><path d="M51.96152,250l17.32051,-10l0,20z" fill-opacity="0" fill="#000000"/><path d="M51.96152,250l17.32051,10l-17.32051,10z" fill-opacity="0" fill="#000000"/><path d="M51.96152,270l17.32051,-10l0,20z" fill-opacity="0" fill="#000000"/><path d="M51.96152,270l17.32051,10l-17.32051,10z" fill-opacity="0" fill="#000000"/><path d="M51.96152,290l17.32051,-10l0,20z" fill-opacity="0" fill="#000000"/><path d="M51.96152,290l17.32051,10l-17.32051,10z" fill-opacity="0" fill="#000000"/><path d="M51.96152,310l17.32051,-10l0,20z"/><path d="M69.28203,0l17.32051,-10l0,20z" fill-opacity="0" fill="#000000"/><path d="M69.28203,0l17.32051,10l-17.32051,10z" fill-opacity="0" fill="#000000"/><path d="M69.28203,20l17.32051,-10l0,20z" fill-opacity="0" fill="#000000"/><path d="M69.28203,20l17.32051,10l-17.32051,10z" fill-opacity="0" fill="#000000"/><path d="M69.28203,40l17.32051,-10l0,20z" fill-opacity="0" fill="#000000"/><path d="M69.28203,40l17.32051,10l-17.32051,10z" fill-opacity="0" fill="#000000"/><path d="M69.28203,60l17.32051,-10l0,20z" fill-opacity="0" fill="#000000"/><path d="M69.28203,60l17.32051,10l-17.32051,10z" fill-opacity="0" fill="#000000"/><path d="M69.28203,80l17.32051,-10l0,20z" fill-opacity="0" fill="#000000"/><path d="M69.28203,80l17.32051,10l-17.32051,10z" fill-opacity="0" fill="#000000"/><path d="M69.28203,100l17.32051,-10l0,20z" fill-opacity="0" fill="#000000"/><path d="M69.28203,100l17.32051,10l-17.32051,10z" fill-opacity="0" fill="#000000"/><path d="M69.28203,120l17.32051,-10l0,20z" fill="#668f1a"/><path d="M69.28203,120l17.32051,10l-17.32051,10z" fill="#668f1a"/><path d="M69.28203,140l17.32051,-10l0,20z" fill="#486610"/><path d="M69.28203,140l17.32051,10l-17.32051,10z" fill="#486610"/><path d="M69.28203,160l17.32051,-10l0,20z" fill-opacity="0" fill="#000000"/><path d="M69.28203,160l17.32051,10l-17.32051,10z" fill="#668f1a"/><path d="M69.28203,180l17.32051,-10l0,20z" fill="#668f1a"/><path d="M69.28203,180l17.32051,10l-17.32051,10z" fill="#8bc71c"/><path d="M69.28203,200l17.32051,-10l0,20z" fill="#8bc71c"/><path d="M69.28203,200l17.32051,10l-17.32051,10z" fill-opacity="0" fill="#000000"/><path d="M69.28203,220l17.32051,-10l0,20z" fill-opacity="0" fill="#000000"/><path d="M69.28203,220l17.32051,10l-17.32051,10z" fill-opacity="0" fill="#000000"/><path d="M69.28203,240l17.32051,-10l0,20z" fill-opacity="0" fill="#000000"/><path d="M69.28203,240l17.32051,10l-17.32051,10z" fill-opacity="0" fill="#000000"/><path d="M69.28203,260l17.32051,-10l0,20z" fill-opacity="0" fill="#000000"/><path d="M69.28203,260l17.32051,10l-17.32051,10z" fill-opacity="0" fill="#000000"/><path d="M69.28203,280l17.32051,-10l0,20z" fill-opacity="0" fill="#000000"/><path d="M69.28203,280l17.32051,10l-17.32051,10z" fill-opacity="0" fill="#000000"/><path d="M69.28203,300l17.32051,-10l0,20z" fill-opacity="0" fill="#000000"/><path d="M69.28203,300l17.32051,10l-17.32051,10z"/><path d="M86.60254,-10l17.32051,10l-17.32051,10z" fill-opacity="0" fill="#000000"/><path d="M86.60254,10l17.32051,-10l0,20z" fill-opacity="0" fill="#000000"/><path d="M86.60254,10l17.32051,10l-17.32051,10z" fill-opacity="0" fill="#000000"/><path d="M86.60254,30l17.32051,-10l0,20z" fill-opacity="0" fill="#000000"/><path d="M86.60254,30l17.32051,10l-17.32051,10z" fill-opacity="0" fill="#000000"/><path d="M86.60254,50l17.32051,-10l0,20z" fill-opacity="0" fill="#000000"/><path d="M86.60254,50l17.32051,10l-17.32051,10z" fill-opacity="0" fill="#000000"/><path d="M86.60254,70l17.32051,-10l0,20z" fill-opacity="0" fill="#000000"/><path d="M86.60254,70l17.32051,10l-17.32051,10z" fill-opacity="0" fill="#000000"/><path d="M86.60254,90l17.32051,-10l0,20z" fill-opacity="0" fill="#000000"/><path d="M86.60254,90l17.32051,10l-17.32051,10z" fill-opacity="0" fill="#000000"/><path d="M86.60254,110l17.32051,-10l0,20z" fill-opacity="0" fill="#000000"/><path d="M86.60254,110l17.32051,10l-17.32051,10z" fill="#668f1a"/><path d="M86.60254,130l17.32051,-10l0,20z" fill="#668f1a"/><path d="M86.60254,130l17.32051,10l-17.32051,10z" fill="#8bc71c"/><path d="M86.60254,150l17.32051,-10l0,20z" fill="#8bc71c"/><path d="M86.60254,150l17.32051,10l-17.32051,10z" fill-opacity="0" fill="#000000"/><path d="M86.60254,170l17.32051,-10l0,20z" fill="#668f1a"/><path d="M86.60254,170l17.32051,10l-17.32051,10z" fill="#668f1a"/><path d="M86.60254,190l17.32051,-10l0,20z" fill="#486610"/><path d="M86.60254,190l17.32051,10l-17.32051,10z" fill="#8bc71c"/><path d="M86.60254,210l17.32051,-10l0,20z" fill="#8bc71c"/><path d="M86.60254,210l17.32051,10l-17.32051,10z" fill-opacity="0" fill="#000000"/><path d="M86.60254,230l17.32051,-10l0,20z" fill-opacity="0" fill="#000000"/><path d="M86.60254,230l17.32051,10l-17.32051,10z" fill-opacity="0" fill="#000000"/><path d="M86.60254,250l17.32051,-10l0,20z" fill-opacity="0" fill="#000000"/><path d="M86.60254,250l17.32051,10l-17.32051,10z" fill-opacity="0" fill="#000000"/><path d="M86.60254,270l17.32051,-10l0,20z" fill-opacity="0" fill="#000000"/><path d="M86.60254,270l17.32051,10l-17.32051,10z" fill-opacity="0" fill="#000000"/><path d="M86.60254,290l17.32051,-10l0,20z" fill-opacity="0" fill="#000000"/><path d="M86.60254,290l17.32051,10l-17.32051,10z" fill-opacity="0" fill="#000000"/><path d="M86.60254,310l17.32051,-10l0,20z"/><path d="M103.92305,0l17.32051,-10l0,20z" fill-opacity="0" fill="#000000"/><path d="M103.92305,0l17.32051,10l-17.32051,10z" fill-opacity="0" fill="#000000"/><path d="M103.92305,20l17.32051,-10l0,20z" fill-opacity="0" fill="#000000"/><path d="M103.92305,20l17.32051,10l-17.32051,10z" fill-opacity="0" fill="#000000"/><path d="M103.92305,40l17.32051,-10l0,20z" fill-opacity="0" fill="#000000"/><path d="M103.92305,40l17.32051,10l-17.32051,10z" fill-opacity="0" fill="#000000"/><path d="M103.92305,60l17.32051,-10l0,20z" fill-opacity="0" fill="#000000"/><path d="M103.92305,60l17.32051,10l-17.32051,10z" fill-opacity="0" fill="#000000"/><path d="M103.92305,80l17.32051,-10l0,20z" fill-opacity="0" fill="#000000"/><path d="M103.92305,80l17.32051,10l-17.32051,10z" fill-opacity="0" fill="#000000"/><path d="M103.92305,100l17.32051,-10l0,20z" fill-opacity="0" fill="#000000"/><path d="M103.92305,100l17.32051,10l-17.32051,10z" fill-opacity="0" fill="#000000"/><path d="M103.92305,120l17.32051,-10l0,20z" fill-opacity="0" fill="#000000"/><path d="M103.92305,120l17.32051,10l-17.32051,10z" fill="#668f1a"/><path d="M103.92305,140l17.32051,-10l0,20z" fill="#668f1a"/><path d="M103.92305,140l17.32051,10l-17.32051,10z" fill="#8bc71c"/><path d="M103.92305,160l17.32051,-10l0,20z" fill="#668f1a"/><path d="M103.92305,160l17.32051,10l-17.32051,10z" fill="#668f1a"/><path d="M103.92305,180l17.32051,-10l0,20z" fill="#486610"/><path d="M103.92305,180l17.32051,10l-17.32051,10z" fill="#486610"/><path d="M103.92305,200l17.32051,-10l0,20z" fill="#668f1a"/><path d="M103.92305,200l17.32051,10l-17.32051,10z" fill="#8bc71c"/><path d="M103.92305,220l17.32051,-10l0,20z" fill="#8bc71c"/><path d="M103.92305,220l17.32051,10l-17.32051,10z" fill-opacity="0" fill="#000000"/><path d="M103.92305,240l17.32051,-10l0,20z" fill-opacity="0" fill="#000000"/><path d="M103.92305,240l17.32051,10l-17.32051,10z" fill-opacity="0" fill="#000000"/><path d="M103.92305,260l17.32051,-10l0,20z" fill-opacity="0" fill="#000000"/><path d="M103.92305,260l17.32051,10l-17.32051,10z" fill-opacity="0" fill="#000000"/><path d="M103.92305,280l17.32051,-10l0,20z" fill-opacity="0" fill="#000000"/><path d="M103.92305,280l17.32051,10l-17.32051,10z" fill-opacity="0" fill="#000000"/><path d="M103.92305,300l17.32051,-10l0,20z" fill-opacity="0" fill="#000000"/><path d="M103.92305,300l17.32051,10l-17.32051,10z"/><path d="M121.24356,-10l17.32051,10l-17.32051,10z" fill-opacity="0" fill="#000000"/><path d="M121.24356,10l17.32051,-10l0,20z" fill-opacity="0" fill="#000000"/><path d="M121.24356,10l17.32051,10l-17.32051,10z" fill-opacity="0" fill="#000000"/><path d="M121.24356,30l17.32051,-10l0,20z" fill-opacity="0" fill="#000000"/><path d="M121.24356,30l17.32051,10l-17.32051,10z" fill-opacity="0" fill="#000000"/><path d="M121.24356,50l17.32051,-10l0,20z" fill-opacity="0" fill="#000000"/><path d="M121.24356,50l17.32051,10l-17.32051,10z" fill-opacity="0" fill="#000000"/><path d="M121.24356,70l17.32051,-10l0,20z" fill-opacity="0" fill="#000000"/><path d="M121.24356,70l17.32051,10l-17.32051,10z" fill-opacity="0" fill="#000000"/><path d="M121.24356,90l17.32051,-10l0,20z" fill-opacity="0" fill="#000000"/><path d="M121.24356,90l17.32051,10l-17.32051,10z" fill-opacity="0" fill="#000000"/><path d="M121.24356,110l17.32051,-10l0,20z" fill-opacity="0" fill="#000000"/><path d="M121.24356,110l17.32051,10l-17.32051,10z" fill-opacity="0" fill="#000000"/><path d="M121.24356,130l17.32051,-10l0,20z" fill-opacity="0" fill="#000000"/><path d="M121.24356,130l17.32051,10l-17.32051,10z" fill="#668f1a"/><path d="M121.24356,150l17.32051,-10l0,20z" fill="#668f1a"/><path d="M121.24356,150l17.32051,10l-17.32051,10z" fill="#668f1a"/><path d="M121.24356,170l17.32051,-10l0,20z" fill="#486610"/><path d="M121.24356,170l17.32051,10l-17.32051,10z" fill="#486610"/><path d="M121.24356,190l17.32051,-10l0,20z" fill-opacity="0" fill="#000000"/><path d="M121.24356,190l17.32051,10l-17.32051,10z" fill="#668f1a"/><path d="M121.24356,210l17.32051,-10l0,20z" fill="#668f1a"/><path d="M121.24356,210l17.32051,10l-17.32051,10z" fill="#8bc71c"/><path d="M121.24356,230l17.32051,-10l0,20z" fill="#8bc71c"/><path d="M121.24356,230l17.32051,10l-17.32051,10z" fill-opacity="0" fill="#000000"/><path d="M121.24356,250l17.32051,-10l0,20z" fill-opacity="0" fill="#000000"/><path d="M121.24356,250l17.32051,10l-17.32051,10z" fill-opacity="0" fill="#000000"/><path d="M121.24356,270l17.32051,-10l0,20z" fill-opacity="0" fill="#000000"/><path d="M121.24356,270l17.32051,10l-17.32051,10z" fill-opacity="0" fill="#000000"/><path d="M121.24356,290l17.32051,-10l0,20z" fill-opacity="0" fill="#000000"/><path d="M121.24356,290l17.32051,10l-17.32051,10z" fill-opacity="0" fill="#000000"/><path d="M121.24356,310l17.32051,-10l0,20z"/><path d="M138.56406,0l17.32051,-10l0,20z" fill-opacity="0" fill="#000000"/><path d="M138.56406,0l17.32051,10l-17.32051,10z" fill-opacity="0" fill="#000000"/><path d="M138.56406,20l17.32051,-10l0,20z" fill-opacity="0" fill="#000000"/><path d="M138.56406,20l17.32051,10l-17.32051,10z" fill-opacity="0" fill="#000000"/><path d="M138.56406,40l17.32051,-10l0,20z" fill-opacity="0" fill="#000000"/><path d="M138.56406,40l17.32051,10l-17.32051,10z" fill-opacity="0" fill="#000000"/><path d="M138.56406,60l17.32051,-10l0,20z" fill-opacity="0" fill="#000000"/><path d="M138.56406,60l17.32051,10l-17.32051,10z" fill-opacity="0" fill="#000000"/><path d="M138.56406,80l17.32051,-10l0,20z" fill-opacity="0" fill="#000000"/><path d="M138.56406,80l17.32051,10l-17.32051,10z" fill-opacity="0" fill="#000000"/><path d="M138.56406,100l17.32051,-10l0,20z" fill-opacity="0" fill="#000000"/><path d="M138.56406,100l17.32051,10l-17.32051,10z" fill-opacity="0" fill="#000000"/><path d="M138.56406,120l17.32051,-10l0,20z" fill-opacity="0" fill="#000000"/><path d="M138.56406,120l17.32051,10l-17.32051,10z" fill-opacity="0" fill="#000000"/><path d="M138.56406,140l17.32051,-10l0,20z" fill="#668f1a"/><path d="M138.56406,140l17.32051,10l-17.32051,10z" fill="#668f1a"/><path d="M138.56406,160l17.32051,-10l0,20z" fill="#668f1a"/><path d="M138.56406,160l17.32051,10l-17.32051,10z" fill="#8bc71c"/><path d="M138.56406,180l17.32051,-10l0,20z" fill="#8bc71c"/><path d="M138.56406,180l17.32051,10l-17.32051,10z" fill-opacity="0" fill="#000000"/><path d="M138.56406,200l17.32051,-10l0,20z" fill="#668f1a"/><path d="M138.56406,200l17.32051,10l-17.32051,10z" fill="#668f1a"/><path d="M138.56406,220l17.32051,-10l0,20z" fill="#486610"/><path d="M138.56406,220l17.32051,10l-17.32051,10z" fill="#486610"/><path d="M138.56406,240l17.32051,-10l0,20z" fill-opacity="0" fill="#000000"/><path d="M138.56406,240l17.32051,10l-17.32051,10z" fill-opacity="0" fill="#000000"/><path d="M138.56406,260l17.32051,-10l0,20z" fill-opacity="0" fill="#000000"/><path d="M138.56406,260l17.32051,10l-17.32051,10z" fill-opacity="0" fill="#000000"/><path d="M138.56406,280l17.32051,-10l0,20z" fill-opacity="0" fill="#000000"/><path d="M138.56406,280l17.32051,10l-17.32051,10z" fill-opacity="0" fill="#000000"/><path d="M138.56406,300l17.32051,-10l0,20z" fill-opacity="0" fill="#000000"/><path d="M138.56406,300l17.32051,10l-17.32051,10z"/><path d="M155.88457,-10l17.32051,10l-17.32051,10z" fill-opacity="0" fill="#000000"/><path d="M155.88457,10l17.32051,-10l0,20z" fill-opacity="0" fill="#000000"/><path d="M155.88457,10l17.32051,10l-17.32051,10z" fill-opacity="0" fill="#000000"/><path d="M155.88457,30l17.32051,-10l0,20z" fill-opacity="0" fill="#000000"/><path d="M155.88457,30l17.32051,10l-17.32051,10z" fill-opacity="0" fill="#000000"/><path d="M155.88457,50l17.32051,-10l0,20z" fill-opacity="0" fill="#000000"/><path d="M155.88457,50l17.32051,10l-17.32051,10z" fill-opacity="0" fill="#000000"/><path d="M155.88457,70l17.32051,-10l0,20z" fill-opacity="0" fill="#000000"/><path d="M155.88457,70l17.32051,10l-17.32051,10z" fill-opacity="0" fill="#000000"/><path d="M155.88457,90l17.32051,-10l0,20z" fill-opacity="0" fill="#000000"/><path d="M155.88457,90l17.32051,10l-17.32051,10z" fill-opacity="0" fill="#000000"/><path d="M155.88457,110l17.32051,-10l0,20z" fill-opacity="0" fill="#000000"/><path d="M155.88457,110l17.32051,10l-17.32051,10z" fill-opacity="0" fill="#000000"/><path d="M155.88457,130l17.32051,-10l0,20z" fill="#668f1a"/><path d="M155.88457,130l17.32051,10l-17.32051,10z" fill="#668f1a"/><path d="M155.88457,150l17.32051,-10l0,20z" fill="#486610"/><path d="M155.88457,150l17.32051,10l-17.32051,10z" fill="#668f1a"/><path d="M155.88457,170l17.32051,-10l0,20z" fill="#668f1a"/><path d="M155.88457,170l17.32051,10l-17.32051,10z" fill="#8bc71c"/><path d="M155.88457,190l17.32051,-10l0,20z" fill="#8bc71c"/><path d="M155.88457,190l17.32051,10l-17.32051,10z" fill="#668f1a"/><path d="M155.88457,210l17.32051,-10l0,20z" fill="#486610"/><path d="M155.88457,210l17.32051,10l-17.32051,10z" fill="#486610"/><path d="M155.88457,230l17.32051,-10l0,20z" fill-opacity="0" fill="#000000"/><path d="M155.88457,230l17.32051,10l-17.32051,10z" fill-opacity="0" fill="#000000"/><path d="M155.88457,250l17.32051,-10l0,20z" fill-opacity="0" fill="#000000"/><path d="M155.88457,250l17.32051,10l-17.32051,10z" fill-opacity="0" fill="#000000"/><path d="M155.88457,270l17.32051,-10l0,20z" fill-opacity="0" fill="#000000"/><path d="M155.88457,270l17.32051,10l-17.32051,10z" fill-opacity="0" fill="#000000"/><path d="M155.88457,290l17.32051,-10l0,20z" fill-opacity="0" fill="#000000"/><path d="M155.88457,290l17.32051,10l-17.32051,10z" fill-opacity="0" fill="#000000"/><path d="M155.88457,310l17.32051,-10l0,20z"/><path d="M173.20508,0l17.32051,-10l0,20z" fill-opacity="0" fill="#000000"/><path d="M173.20508,0l17.32051,10l-17.32051,10z" fill-opacity="0" fill="#000000"/><path d="M173.20508,20l17.32051,-10l0,20z" fill-opacity="0" fill="#000000"/><path d="M173.20508,20l17.32051,10l-17.32051,10z" fill-opacity="0" fill="#000000"/><path d="M173.20508,40l17.32051,-10l0,20z" fill-opacity="0" fill="#000000"/><path d="M173.20508,40l17.32051,10l-17.32051,10z" fill-opacity="0" fill="#000000"/><path d="M173.20508,60l17.32051,-10l0,20z" fill-opacity="0" fill="#000000"/><path d="M173.20508,60l17.32051,10l-17.32051,10z" fill-opacity="0" fill="#000000"/><path d="M173.20508,80l17.32051,-10l0,20z" fill-opacity="0" fill="#000000"/><path d="M173.20508,80l17.32051,10l-17.32051,10z" fill-opacity="0" fill="#000000"/><path d="M173.20508,100l17.32051,-10l0,20z" fill-opacity="0" fill="#000000"/><path d="M173.20508,100l17.32051,10l-17.32051,10z" fill-opacity="0" fill="#000000"/><path d="M173.20508,120l17.32051,-10l0,20z" fill="#668f1a"/><path d="M173.20508,120l17.32051,10l-17.32051,10z" fill="#668f1a"/><path d="M173.20508,140l17.32051,-10l0,20z" fill="#486610"/><path d="M173.20508,140l17.32051,10l-17.32051,10z" fill="#486610"/><path d="M173.20508,160l17.32051,-10l0,20z" fill-opacity="0" fill="#000000"/><path d="M173.20508,160l17.32051,10l-17.32051,10z" fill="#668f1a"/><path d="M173.20508,180l17.32051,-10l0,20z" fill="#668f1a"/><path d="M173.20508,180l17.32051,10l-17.32051,10z" fill="#8bc71c"/><path d="M173.20508,200l17.32051,-10l0,20z" fill="#486610"/><path d="M173.20508,200l17.32051,10l-17.32051,10z" fill="#486610"/><path d="M173.20508,220l17.32051,-10l0,20z" fill-opacity="0" fill="#000000"/><path d="M173.20508,220l17.32051,10l-17.32051,10z" fill-opacity="0" fill="#000000"/><path d="M173.20508,240l17.32051,-10l0,20z" fill-opacity="0" fill="#000000"/><path d="M173.20508,240l17.32051,10l-17.32051,10z" fill-opacity="0" fill="#000000"/><path d="M173.20508,260l17.32051,-10l0,20z" fill-opacity="0" fill="#000000"/><path d="M173.20508,260l17.32051,10l-17.32051,10z" fill-opacity="0" fill="#000000"/><path d="M173.20508,280l17.32051,-10l0,20z" fill-opacity="0" fill="#000000"/><path d="M173.20508,280l17.32051,10l-17.32051,10z" fill-opacity="0" fill="#000000"/><path d="M173.20508,300l17.32051,-10l0,20z" fill-opacity="0" fill="#000000"/><path d="M173.20508,300l17.32051,10l-17.32051,10z"/><path d="M190.52559,-10l17.32051,10l-17.32051,10z" fill-opacity="0" fill="#000000"/><path d="M190.52559,10l17.32051,-10l0,20z" fill-opacity="0" fill="#000000"/><path d="M190.52559,10l17.32051,10l-17.32051,10z" fill-opacity="0" fill="#000000"/><path d="M190.52559,30l17.32051,-10l0,20z" fill-opacity="0" fill="#000000"/><path d="M190.52559,30l17.32051,10l-17.32051,10z" fill-opacity="0" fill="#000000"/><path d="M190.52559,50l17.32051,-10l0,20z" fill-opacity="0" fill="#000000"/><path d="M190.52559,50l17.32051,10l-17.32051,10z" fill-opacity="0" fill="#000000"/><path d="M190.52559,70l17.32051,-10l0,20z" fill-opacity="0" fill="#000000"/><path d="M190.52559,70l17.32051,10l-17.32051,10z" fill-opacity="0" fill="#000000"/><path d="M190.52559,90l17.32051,-10l0,20z" fill-opacity="0" fill="#000000"/><path d="M190.52559,90l17.32051,10l-17.32051,10z" fill-opacity="0" fill="#000000"/><path d="M190.52559,110l17.32051,-10l0,20z" fill-opacity="0" fill="#000000"/><path d="M190.52559,110l17.32051,10l-17.32051,10z" fill="#668f1a"/><path d="M190.52559,130l17.32051,-10l0,20z" fill="#668f1a"/><path d="M190.52559,130l17.32051,10l-17.32051,10z" fill="#8bc71c"/><path d="M190.52559,150l17.32051,-10l0,20z" fill="#8bc71c"/><path d="M190.52559,150l17.32051,10l-17.32051,10z" fill-opacity="0" fill="#000000"/><path d="M190.52559,170l17.32051,-10l0,20z" fill="#668f1a"/><path d="M190.52559,170l17.32051,10l-17.32051,10z" fill="#668f1a"/><path d="M190.52559,190l17.32051,-10l0,20z" fill="#486610"/><path d="M190.52559,190l17.32051,10l-17.32051,10z" fill="#486610"/><path d="M190.52559,210l17.32051,-10l0,20z" fill-opacity="0" fill="#000000"/><path d="M190.52559,210l17.32051,10l-17.32051,10z" fill-opacity="0" fill="#000000"/><path d="M190.52559,230l17.32051,-10l0,20z" fill-opacity="0" fill="#000000"/><path d="M190.52559,230l17.32051,10l-17.32051,10z" fill-opacity="0" fill="#000000"/><path d="M190.52559,250l17.32051,-10l0,20z" fill-opacity="0" fill="#000000"/><path d="M190.52559,250l17.32051,10l-17.32051,10z" fill-opacity="0" fill="#000000"/><path d="M190.52559,270l17.32051,-10l0,20z" fill-opacity="0" fill="#000000"/><path d="M190.52559,270l17.32051,10l-17.32051,10z" fill-opacity="0" fill="#000000"/><path d="M190.52559,290l17.32051,-10l0,20z" fill-opacity="0" fill="#000000"/><path d="M190.52559,290l17.32051,10l-17.32051,10z" fill-opacity="0" fill="#000000"/><path d="M190.52559,310l17.32051,-10l0,20z"/><path d="M207.8461,0l17.32051,-10l0,20z" fill-opacity="0" fill="#000000"/><path d="M207.8461,0l17.32051,10l-17.32051,10z" fill-opacity="0" fill="#000000"/><path d="M207.8461,20l17.32051,-10l0,20z" fill-opacity="0" fill="#000000"/><path d="M207.8461,20l17.32051,10l-17.32051,10z" fill-opacity="0" fill="#000000"/><path d="M207.8461,40l17.32051,-10l0,20z" fill-opacity="0" fill="#000000"/><path d="M207.8461,40l17.32051,10l-17.32051,10z" fill-opacity="0" fill="#000000"/><path d="M207.8461,60l17.32051,-10l0,20z" fill-opacity="0" fill="#000000"/><path d="M207.8461,60l17.32051,10l-17.32051,10z" fill-opacity="0" fill="#000000"/><path d="M207.8461,80l17.32051,-10l0,20z" fill-opacity="0" fill="#000000"/><path d="M207.8461,80l17.32051,10l-17.32051,10z" fill-opacity="0" fill="#000000"/><path d="M207.8461,100l17.32051,-10l0,20z" fill-opacity="0" fill="#000000"/><path d="M207.8461,100l17.32051,10l-17.32051,10z" fill-opacity="0" fill="#000000"/><path d="M207.8461,120l17.32051,-10l0,20z" fill-opacity="0" fill="#000000"/><path d="M207.8461,120l17.32051,10l-17.32051,10z" fill="#668f1a"/><path d="M207.8461,140l17.32051,-10l0,20z" fill="#668f1a"/><path d="M207.8461,140l17.32051,10l-17.32051,10z" fill="#8bc71c"/><path d="M207.8461,160l17.32051,-10l0,20z" fill="#668f1a"/><path d="M207.8461,160l17.32051,10l-17.32051,10z" fill="#668f1a"/><path d="M207.8461,180l17.32051,-10l0,20z" fill="#486610"/><path d="M207.8461,180l17.32051,10l-17.32051,10z" fill="#486610"/><path d="M207.8461,200l17.32051,-10l0,20z" fill-opacity="0" fill="#000000"/><path d="M207.8461,200l17.32051,10l-17.32051,10z" fill-opacity="0" fill="#000000"/><path d="M207.8461,220l17.32051,-10l0,20z" fill-opacity="0" fill="#000000"/><path d="M207.8461,220l17.32051,10l-17.32051,10z" fill-opacity="0" fill="#000000"/><path d="M207.8461,240l17.32051,-10l0,20z" fill-opacity="0" fill="#000000"/><path d="M207.8461,240l17.32051,10l-17.32051,10z" fill-opacity="0" fill="#000000"/><path d="M207.8461,260l17.32051,-10l0,20z" fill-opacity="0" fill="#000000"/><path d="M207.8461,260l17.32051,10l-17.32051,10z" fill-opacity="0" fill="#000000"/><path d="M207.8461,280l17.32051,-10l0,20z" fill-opacity="0" fill="#000000"/><path d="M207.8461,280l17.32051,10l-17.32051,10z" fill-opacity="0" fill="#000000"/><path d="M207.8461,300l17.32051,-10l0,20z" fill-opacity="0" fill="#000000"/><path d="M207.8461,300l17.32051,10l-17.32051,10z"/><path d="M225.1666,-10l17.32051,10l-17.32051,10z" fill-opacity="0" fill="#000000"/><path d="M225.1666,10l17.32051,-10l0,20z" fill-opacity="0" fill="#000000"/><path d="M225.1666,10l17.32051,10l-17.32051,10z" fill-opacity="0" fill="#000000"/><path d="M225.1666,30l17.32051,-10l0,20z" fill-opacity="0" fill="#000000"/><path d="M225.1666,30l17.32051,10l-17.32051,10z" fill-opacity="0" fill="#000000"/><path d="M225.1666,50l17.32051,-10l0,20z" fill-opacity="0" fill="#000000"/><path d="M225.1666,50l17.32051,10l-17.32051,10z" fill-opacity="0" fill="#000000"/><path d="M225.1666,70l17.32051,-10l0,20z" fill-opacity="0" fill="#000000"/><path d="M225.1666,70l17.32051,10l-17.32051,10z" fill-opacity="0" fill="#000000"/><path d="M225.1666,90l17.32051,-10l0,20z" fill-opacity="0" fill="#000000"/><path d="M225.1666,90l17.32051,10l-17.32051,10z" fill-opacity="0" fill="#000000"/><path d="M225.1666,110l17.32051,-10l0,20z" fill-opacity="0" fill="#000000"/><path d="M225.1666,110l17.32051,10l-17.32051,10z" fill-opacity="0" fill="#000000"/><path d="M225.1666,130l17.32051,-10l0,20z" fill-opacity="0" fill="#000000"/><path d="M225.1666,130l17.32051,10l-17.32051,10z" fill="#668f1a"/><path d="M225.1666,150l17.32051,-10l0,20z" fill="#668f1a"/><path d="M225.1666,150l17.32051,10l-17.32051,10z" fill="#668f1a"/><path d="M225.1666,170l17.32051,-10l0,20z" fill="#486610"/><path d="M225.1666,170l17.32051,10l-17.32051,10z" fill="#486610"/><path d="M225.1666,190l17.32051,-10l0,20z" fill-opacity="0" fill="#000000"/><path d="M225.1666,190l17.32051,10l-17.32051,10z" fill-opacity="0" fill="#000000"/><path d="M225.1666,210l17.32051,-10l0,20z" fill-opacity="0" fill="#000000"/><path d="M225.1666,210l17.32051,10l-17.32051,10z" fill-opacity="0" fill="#000000"/><path d="M225.1666,230l17.32051,-10l0,20z" fill-opacity="0" fill="#000000"/><path d="M225.1666,230l17.32051,10l-17.32051,10z" fill-opacity="0" fill="#000000"/><path d="M225.1666,250l17.32051,-10l0,20z" fill-opacity="0" fill="#000000"/><path d="M225.1666,250l17.32051,10l-17.32051,10z" fill-opacity="0" fill="#000000"/><path d="M225.1666,270l17.32051,-10l0,20z" fill-opacity="0" fill="#000000"/><path d="M225.1666,270l17.32051,10l-17.32051,10z" fill-opacity="0" fill="#000000"/><path d="M225.1666,290l17.32051,-10l0,20z" fill-opacity="0" fill="#000000"/><path d="M225.1666,290l17.32051,10l-17.32051,10z" fill-opacity="0" fill="#000000"/><path d="M225.1666,310l17.32051,-10l0,20z"/><path d="M242.48711,0l17.32051,-10l0,20z" fill-opacity="0" fill="#000000"/><path d="M242.48711,0l17.32051,10l-17.32051,10z" fill-opacity="0" fill="#000000"/><path d="M242.48711,20l17.32051,-10l0,20z" fill-opacity="0" fill="#000000"/><path d="M242.48711,20l17.32051,10l-17.32051,10z" fill-opacity="0" fill="#000000"/><path d="M242.48711,40l17.32051,-10l0,20z" fill-opacity="0" fill="#000000"/><path d="M242.48711,40l17.32051,10l-17.32051,10z" fill-opacity="0" fill="#000000"/><path d="M242.48711,60l17.32051,-10l0,20z" fill-opacity="0" fill="#000000"/><path d="M242.48711,60l17.32051,10l-17.32051,10z" fill-opacity="0" fill="#000000"/><path d="M242.48711,80l17.32051,-10l0,20z" fill-opacity="0" fill="#000000"/><path d="M242.48711,80l17.32051,10l-17.32051,10z" fill-opacity="0" fill="#000000"/><path d="M242.48711,100l17.32051,-10l0,20z" fill-opacity="0" fill="#000000"/><path d="M242.48711,100l17.32051,10l-17.32051,10z" fill-opacity="0" fill="#000000"/><path d="M242.48711,120l17.32051,-10l0,20z" fill-opacity="0" fill="#000000"/><path d="M242.48711,120l17.32051,10l-17.32051,10z" fill-opacity="0" fill="#000000"/><path d="M242.48711,140l17.32051,-10l0,20z" fill-opacity="0" fill="#000000"/><path d="M242.48711,140l17.32051,10l-17.32051,10z" fill="#668f1a"/><path d="M242.48711,160l17.32051,-10l0,20z" fill="#486610"/><path d="M242.48711,160l17.32051,10l-17.32051,10z" fill="#486610"/><path d="M242.48711,180l17.32051,-10l0,20z" fill-opacity="0" fill="#000000"/><path d="M242.48711,180l17.32051,10l-17.32051,10z" fill-opacity="0" fill="#000000"/><path d="M242.48711,200l17.32051,-10l0,20z" fill-opacity="0" fill="#000000"/><path d="M242.48711,200l17.32051,10l-17.32051,10z" fill-opacity="0" fill="#000000"/><path d="M242.48711,220l17.32051,-10l0,20z" fill-opacity="0" fill="#000000"/><path d="M242.48711,220l17.32051,10l-17.32051,10z" fill-opacity="0" fill="#000000"/><path d="M242.48711,240l17.32051,-10l0,20z" fill-opacity="0" fill="#000000"/><path d="M242.48711,240l17.32051,10l-17.32051,10z" fill-opacity="0" fill="#000000"/><path d="M242.48711,260l17.32051,-10l0,20z" fill-opacity="0" fill="#000000"/><path d="M242.48711,260l17.32051,10l-17.32051,10z" fill-opacity="0" fill="#000000"/><path d="M242.48711,280l17.32051,-10l0,20z" fill-opacity="0" fill="#000000"/><path d="M242.48711,280l17.32051,10l-17.32051,10z" fill-opacity="0" fill="#000000"/><path d="M242.48711,300l17.32051,-10l0,20z" fill-opacity="0" fill="#000000"/><path d="M242.48711,300l17.32051,10l-17.32051,10z"/></g></svg>